# xmcd
#
# Track frame offsets: 
#        150
#        22282
#        42660
#        55982
#        68440
#        81592
#        94755
#        114722
#        127845
#        147097
#        167642
#        190212
#        206512
#        217477
#
# Disc length: 3253 seconds
#
# Revision: 3
# Processed by: cddbd v1.5.2PL0 Copyright (c) Steve Scherf et al.
# Submitted via: ExactAudioCopy v0.99pb4
#
DISCID=d70cb30e
DTITLE=Shades of Blue - Shades Of Blue
DYEAR=1994
DGENRE=Blues
TTITLE0=God Bless The Child
TTITLE1=Till We Get The Healing Done
TTITLE2=I'm On My Way
TTITLE3=Little John Of God
TTITLE4=Just A Closer Walk With Thee
TTITLE5=Grandma's Hands
TTITLE6=The Final Sermon
TTITLE7=Amazing Grace
TTITLE8=I Believe In You
TTITLE9=Russian Lullaby
TTITLE10=The Lapland
TTITLE11=Beautiful Isle of Somewhere
TTITLE12=No Longer Sad Days
TTITLE13=Jesus' Blood Never Failed Me Yet
EXTD=
EXTT0=
EXTT1=
EXTT2=
EXTT3=
EXTT4=
EXTT5=
EXTT6=
EXTT7=
EXTT8=
EXTT9=
EXTT10=
EXTT11=
EXTT12=
EXTT13=
PLAYORDER=
